<svg xmlns="http://www.w3.org/2000/svg" viewBox="0 0 1333.33 1333.33" shape-rendering="geometricPrecision" text-rendering="geometricPrecision" image-rendering="optimizeQuality" fill-rule="evenodd" clip-rule="evenodd"><path d="M61.59 0h302.53c16.96 0 32.37 6.93 43.52 18.07 11.15 11.15 18.07 26.55 18.07 43.51V901h846.03c16.96 0 32.37 6.93 43.51 18.07 11.15 11.15 18.07 26.55 18.07 43.51v309.15c0 16.9-6.93 32.28-18.07 43.43l-.05.04.05.05c-11.15 11.15-26.56 18.07-43.51 18.07H61.58c-16.96 0-32.37-6.93-43.52-18.07-11.15-11.15-18.07-26.56-18.07-43.52V61.57c0-16.96 6.93-32.37 18.07-43.51C29.21 6.91 44.62-.01 61.58-.01zm1040.37 1025.47c46.85 0 84.83 37.98 84.83 84.83s-37.98 84.83-84.83 84.83-84.83-37.98-84.83-84.83 37.98-84.83 84.83-84.83zm-224.72 262.41v-89.09c0-12.55 10.18-22.73 22.73-22.73 12.56 0 22.73 10.18 22.73 22.73v89.09h349.04c4.41 0 8.44-1.83 11.37-4.76l.04.04c2.91-2.93 4.72-6.97 4.72-11.42V962.59c0-4.41-1.83-8.44-4.76-11.37-2.93-2.93-6.96-4.76-11.37-4.76H402.98c-12.55 0-22.73-10.17-22.73-22.73V61.58c0-4.41-1.83-8.44-4.76-11.37-2.93-2.93-6.96-4.76-11.37-4.76H61.59c-4.41 0-8.44 1.83-11.37 4.76-2.93 2.93-4.76 6.96-4.76 11.37v51.08h144.37c12.56 0 22.73 10.18 22.73 22.73 0 12.56-10.17 22.73-22.73 22.73H45.46v91.76h82.99c12.56 0 22.73 10.17 22.73 22.73 0 12.55-10.18 22.73-22.73 22.73H45.46v94.78h144.37c12.56 0 22.73 10.18 22.73 22.73s-10.17 22.73-22.73 22.73H45.46v89.93h82.99c12.56 0 22.73 10.17 22.73 22.73 0 12.55-10.18 22.73-22.73 22.73H45.46v93.3h144.37c12.56 0 22.73 10.18 22.73 22.73s-10.17 22.73-22.73 22.73H45.46v91.4h82.99c12.56 0 22.73 10.17 22.73 22.73 0 12.55-10.18 22.73-22.73 22.73H45.46v425.16c0 4.41 1.83 8.44 4.76 11.37 2.93 2.93 6.96 4.76 11.37 4.76h87.93v-153.96c0-12.56 10.18-22.73 22.73-22.73s22.73 10.17 22.73 22.73v153.96h100.24v-89.09c0-12.55 10.18-22.73 22.73-22.73 12.56 0 22.73 10.18 22.73 22.73v89.09h100.77v-153.96c0-12.56 10.18-22.73 22.73-22.73 12.56 0 22.73 10.17 22.73 22.73v153.96h102.62v-89.09c0-12.55 10.18-22.73 22.73-22.73s22.73 10.18 22.73 22.73v89.09h98.4v-153.96c0-12.56 10.17-22.73 22.73-22.73 12.55 0 22.73 10.17 22.73 22.73v153.96h98.39z" fill-rule="nonzero"/></svg>