<svg xmlns="http://www.w3.org/2000/svg" viewBox="0 0 333333 329732" shape-rendering="geometricPrecision" text-rendering="geometricPrecision" image-rendering="optimizeQuality" fill-rule="evenodd" clip-rule="evenodd"><path d="M266679 274715l-14751 14898c-3043 3060-7991 3074-11050 31-3060-3043-3073-7991-30-11050l14718-14865-14105-13944-9135 9227c-3043 3060-7991 3073-11050 30-3060-3043-3074-7991-31-11050l9103-9194-14105-13944-14465 14609c-3043 3060-7991 3074-11050 31-3060-3043-3073-7991-30-11050l14432-14576-14105-13944-8435 8520c-3043 3060-7991 3073-11050 30-3060-3043-3074-7991-31-11050l8403-8487-14105-13944-14178 14320c-3043 3060-7991 3073-11051 30s-3073-7991-30-11050l14146-14287-14105-13944-8010 8090c-3043 3060-7991 3073-11050 30-3060-3043-3073-7991-30-11050l7977-8057-14105-13944-13892 14031c-3043 3060-7991 3073-11050 30-3060-3043-3074-7991-31-11050l13859-13998-14105-13944-7139 7210c-3043 3060-7991 3074-11050 31-3060-3043-3074-7991-31-11050l7106-7178-14659-14491-15223 15375c-3043 3060-7991 3074-11050 31-3060-3043-3074-7991-31-11050l15191-15343-37593-37164v287489h290806l-39799-39345zM13749 2694l81027 80102c309 228 605 480 885 759 269 267 513 548 734 842l234604 231928c3077 3026 3118 7973 92 11050-1530 1555-3550 2334-5571 2334v23H7837c-4328 0-7836-3509-7836-7836V7837C1 3509 3510 1 7837 1c2360 0 4476 1043 5913 2694zm63155 165500l86482 86145c3060 3043 3073 7991 30 11050-1527 1535-3533 2304-5541 2304v22H70970c-4328 0-7836-3508-7836-7836v-86566c0-4328 3508-7836 7836-7836 2371 0 4496 1054 5933 2717zm62033 83850l-60130-59896v59896h60130z" fill-rule="nonzero"/></svg>